<svg width="284" height="44" viewBox="0 0 284 44" fill="none" xmlns="http://www.w3.org/2000/svg">
<path d="M248.5 44V42.7778H251.929V10.2778H248.5V9H259.768L260.257 10.7778L269.293 9H270.273C271.616 9 272.886 9.27778 274.083 9.83334C275.281 10.3519 276.315 11.0741 277.186 12C278.093 12.8889 278.801 13.9444 279.309 15.1667C279.817 16.3519 280.071 17.6296 280.071 19V42.7778H283.5V44H270.273V16.2778L261.727 17.5V42.7778H265.156V44H248.5Z" fill="#212121"/>
<path d="M224.5 44C223.13 44 221.833 43.7407 220.611 43.2222C219.426 42.6667 218.37 41.9444 217.444 41.0556C216.556 40.1296 215.833 39.0741 215.278 37.8889C214.759 36.6667 214.5 35.3704 214.5 34V19C214.5 17.6296 214.759 16.3519 215.278 15.1667C215.833 13.9444 216.556 12.8889 217.444 12C218.37 11.0741 219.426 10.3519 220.611 9.83334C221.833 9.27778 223.13 9 224.5 9H234.5C235.87 9 237.148 9.27778 238.333 9.83334C239.556 10.3519 240.611 11.0741 241.5 12C242.426 12.8889 243.148 13.9444 243.667 15.1667C244.222 16.3519 244.5 17.6296 244.5 19V34C244.5 35.3704 244.222 36.6667 243.667 37.8889C243.148 39.0741 242.426 40.1296 241.5 41.0556C240.611 41.9444 239.556 42.6667 238.333 43.2222C237.148 43.7407 235.87 44 234.5 44H224.5ZM234.5 16.2778H224.5V36.7778H234.5V16.2778Z" fill="#212121"/>
<path d="M181.722 44V31.5H183V35L200.5 36.2778V30.2778L191.5 31.5H190.5C189.13 31.5 187.833 31.2407 186.611 30.7222C185.426 30.1667 184.37 29.4444 183.444 28.5556C182.556 27.6296 181.833 26.5741 181.278 25.3889C180.759 24.1667 180.5 22.8704 180.5 21.5V19C180.5 17.6296 180.759 16.3519 181.278 15.1667C181.833 13.9444 182.556 12.8889 183.444 12C184.37 11.0741 185.426 10.3519 186.611 9.83334C187.833 9.27778 189.13 9 190.5 9H209.222V21.5H208V18L190.5 16.7778V22.7778L199.5 21.5H200.5C201.87 21.5 203.148 21.7778 204.333 22.3333C205.556 22.8519 206.611 23.5741 207.5 24.5C208.426 25.3889 209.148 26.4444 209.667 27.6667C210.222 28.8519 210.5 30.1296 210.5 31.5V34C210.5 35.3704 210.222 36.6667 209.667 37.8889C209.148 39.0741 208.426 40.1296 207.5 41.0556C206.611 41.9444 205.556 42.6667 204.333 43.2222C203.148 43.7407 201.87 44 200.5 44H181.722Z" fill="#212121"/>
<path d="M160.5 44V42.7975H164V10.8224H160.5V9.56522H174V42.7975H177.5V44H160.5ZM164 7.10559V0H174V7.10559H164Z" fill="#212121"/>
<path d="M150.156 24.7708C151.171 24.7708 152.114 24.9694 152.985 25.3667C153.891 25.7278 154.671 26.2514 155.324 26.9375C156.013 27.5875 156.539 28.3639 156.902 29.2667C157.301 30.1333 157.5 31.0722 157.5 32.0833V35.225C157.5 36.4167 157.246 37.5542 156.738 38.6375C156.231 39.6847 155.523 40.6056 154.617 41.4C153.746 42.1944 152.713 42.8264 151.516 43.2958C150.319 43.7653 149.05 44 147.708 44H123.5V42.8083H127.417V6.24583H123.5V5H147.708C149.014 5 150.247 5.23472 151.407 5.70417C152.568 6.17361 153.565 6.80556 154.399 7.6C155.27 8.39444 155.959 9.33333 156.466 10.4167C156.974 11.4639 157.228 12.5833 157.228 13.775V16.9708C157.228 17.9819 157.047 18.9389 156.684 19.8417C156.321 20.7083 155.814 21.4847 155.161 22.1708C154.508 22.8208 153.746 23.3444 152.876 23.7417C152.042 24.1028 151.135 24.2833 150.156 24.2833V24.7708ZM147.708 28.1833H137.209V36.9583H147.708V28.1833ZM147.708 12.0958H137.209V20.8708H147.708V12.0958Z" fill="#212121"/>
<path d="M89.9769 21.5V9H108.192C109.542 9 110.8 9.27778 111.967 9.83334C113.17 10.3519 114.209 11.0741 115.085 12C115.996 12.8889 116.707 13.9444 117.218 15.1667C117.765 16.3519 118.038 17.6296 118.038 19V42.7778H120.5V44H109.669L109.177 42.2778L99.3308 44H98.3462C96.9969 44 95.7205 43.7407 94.5171 43.2222C93.3501 42.6667 92.3108 41.9444 91.3991 41.0556C90.5239 40.1296 89.8128 39.0741 89.2658 37.8889C88.7553 36.6667 88.5 35.3704 88.5 34V31.5C88.5 30.1296 88.7553 28.8519 89.2658 27.6667C89.8128 26.4444 90.5239 25.3889 91.3991 24.5C92.3108 23.5741 93.3501 22.8519 94.5171 22.3333C95.7205 21.7778 96.9969 21.5 98.3462 21.5H99.3308L108.192 22.7778V16.2778L91.1803 17.5V21.5H89.9769ZM108.192 30L98.3462 28.7778V36.7778L108.192 35.5V30Z" fill="#212121"/>
<path d="M82.4608 9.875V18.1625L72.2647 16.9708V36.9583L83.1972 35.7125V31.8125H84.5V44H72.2647C70.8675 44 69.5457 43.7472 68.2996 43.2417C67.0911 42.7 66.0149 41.9958 65.0708 41.1292C64.1645 40.2264 63.4281 39.1972 62.8617 38.0417C62.333 36.85 62.0686 35.5861 62.0686 34.25V6.24583H58.5V5H72.2647V9.875H82.4608Z" fill="#212121"/>
<path d="M40.5 44V42.7975H43.7941V10.8224H40.5V9.56522H53.2059V42.7975H56.5V44H40.5ZM43.7941 7.10559V0H53.2059V7.10559H43.7941Z" fill="#212121"/>
<path d="M14.1445 6.24583L21.1048 35.4958H21.4915L28.4518 6.24583H25.0269V5H39.5V6.24583H35.9093L26.8499 44H12.8739L3.98017 6.24583H0.5V5H17.6246V6.24583H14.1445Z" fill="#212121"/>
</svg>
