<svg width="60" height="60" viewBox="0 0 60 60" fill="none" xmlns="http://www.w3.org/2000/svg">
<path d="M34.5836 51.0879C30.2079 51.0879 26.011 49.3517 22.9136 46.2603C16.4799 39.8259 16.4812 29.3535 22.9144 22.9178C29.3475 16.4824 39.8182 16.4834 46.2529 22.918C52.6871 29.3521 52.6874 39.8258 46.2535 46.2603L34.5836 51.0879ZM34.5836 51.0879C38.9589 51.0879 43.1556 49.352 46.2529 46.2609L34.5836 51.0879ZM20.0421 1H21.0421V2V7.92535V8.92535H20.0421H14.5269L20.3395 14.739C29.88 7.88279 43.2897 8.73976 51.8573 17.313C61.3817 26.8406 61.382 42.3385 51.8515 51.8609L51.8508 51.8616C47.2665 56.433 41.0571 59 34.5836 59C28.1101 59 21.9007 56.433 17.3164 51.8616L17.3153 51.8605C8.74409 43.2864 7.88689 29.8798 14.7417 20.3378L8.92429 14.5271V20.0454V21.0454H7.92429H2H0.999996V20.0454V2V1H2H20.0421Z" fill="url(#paint0_linear_47_815)" stroke="#FFFCF9" stroke-width="2"/>
<defs>
<linearGradient id="paint0_linear_47_815" x1="30" y1="2" x2="30" y2="58" gradientUnits="userSpaceOnUse">
<stop stop-color="#212020"/>
<stop offset="1" stop-color="#755326"/>
</linearGradient>
</defs>
</svg>
