<svg width="63" height="67" viewBox="0 0 63 67" fill="none" xmlns="http://www.w3.org/2000/svg">
<g id="arrow">
<path id="Vector 8" d="M25.363 62.577C25.5153 62.4847 25.6542 62.3569 25.7766 62.2303C26.9629 61.0033 27.9537 59.5036 28.6689 57.9581C29.8869 55.326 30.2383 52.577 29.7102 49.7218C29.3517 47.7837 28.5521 46.0585 27.7663 44.2787" stroke="#212121" stroke-linecap="round"/>
<path id="Vector 9" d="M25.4424 62.5289C27.9566 61.0049 30.5117 59.5396 33.1967 58.3324C35.2935 57.3896 36.8016 56.7967 39.0078 56.2434C39.7498 56.0573 42.4443 55.4533 43.2029 55.3541" stroke="#212121" stroke-linecap="round"/>
<path id="Vector 7" d="M32.2613 1.17912C38.1124 10.4511 45.7893 20.0029 43.8658 31.5886C42.5907 39.2679 38.6845 46.6013 34.4041 52.9059C31.8746 56.6314 29.0315 60.0242 25.3996 62.6374" stroke="#212121" stroke-linecap="round"/>
</g>
</svg>
