<svg width="60" height="60" viewBox="0 0 60 60" fill="none" xmlns="http://www.w3.org/2000/svg">
<g id="icon male 56px">
<path id="Vector" d="M25.4164 51.0879C29.7921 51.0879 33.989 49.3517 37.0864 46.2603C43.5201 39.8259 43.5188 29.3535 37.0856 22.9178C30.6525 16.4824 20.1818 16.4834 13.7471 22.918C7.31285 29.3521 7.31263 39.8258 13.7465 46.2603L25.4164 51.0879ZM25.4164 51.0879C21.0411 51.0879 16.8444 49.352 13.7471 46.2609L25.4164 51.0879ZM39.9579 1H38.9579V2V7.92535V8.92535H39.9579H45.4731L39.6605 14.739C30.12 7.88279 16.7103 8.73976 8.14274 17.313C-1.38173 26.8406 -1.38203 42.3385 8.14854 51.8609L8.14924 51.8616C12.7335 56.433 18.9429 59 25.4164 59C31.8899 59 38.0993 56.433 42.6836 51.8616L42.6847 51.8605C51.2559 43.2864 52.1131 29.8798 45.2583 20.3378L51.0757 14.5271V20.0454V21.0454H52.0757H58H59V20.0454V2V1H58H39.9579Z" fill="url(#paint0_linear_47_808)" stroke="#FFFCF9" stroke-width="2"/>
</g>
<defs>
<linearGradient id="paint0_linear_47_808" x1="30" y1="2" x2="30" y2="58" gradientUnits="userSpaceOnUse">
<stop stop-color="#212020"/>
<stop offset="1" stop-color="#755326"/>
</linearGradient>
</defs>
</svg>
