<svg width="112" height="220" viewBox="0 0 112 220" fill="none" xmlns="http://www.w3.org/2000/svg">
<g id="illustrarion ?">
<path id="?" d="M37.1177 126.609L37.1111 126.626L37.1049 126.644C34.6692 133.441 33.4568 140.637 33.4568 148.22V160.761V162.761H35.4568H66.2716H68.2716V160.761V149.414C68.2716 144.372 69.4735 139.187 71.9327 133.844C74.6199 128.273 79.3241 121.25 86.1255 112.747C94.7466 102.121 100.864 92.5003 104.389 83.8967C108.127 75.0975 110 65.9776 110 56.5521C110 39.2933 105.412 25.7791 95.9465 16.3347C86.6783 6.6727 73.1359 2 55.679 2C38.422 2 24.9879 6.68023 15.724 16.3436C6.47636 25.7902 2 39.301 2 56.5521V77.1549V79.1549H4H37.3827H39.3827V77.1549V54.462C39.3827 47.4979 40.8515 42.944 43.3333 40.3055L43.354 40.2835L43.374 40.2609C45.8903 37.4186 49.6615 35.8592 55.037 35.8592C60.4126 35.8592 64.1838 37.4186 66.7 40.2609L66.72 40.2835L66.7407 40.3055C69.2226 42.944 70.6914 47.4979 70.6914 54.462C70.6914 62.391 69.341 69.9143 66.6475 77.0454C63.9623 84.1547 58.8467 92.7381 51.1969 102.819L51.1958 102.821C44.4999 111.661 39.7786 119.596 37.1177 126.609ZM33.8518 182.349H31.8518V184.349V216V218H33.8518H67.8765H69.8765V216V184.349V182.349H67.8765H33.8518Z" stroke="#FFFCF9" stroke-width="4"/>
</g>
</svg>
