<svg width="84" height="92" viewBox="0 0 84 92" fill="none" xmlns="http://www.w3.org/2000/svg">
<g id="icon scrip">
<path id="Vector" d="M74.0047 49.3354L39.4777 84.0521C35.6901 87.8605 30.5531 90 25.1966 90C19.8401 90 14.703 87.8605 10.9154 84.0521C7.12785 80.2437 5 75.0784 5 69.6925C5 64.3066 7.12785 59.1413 10.9154 55.3329L60.0153 5.96335C61.266 4.70639 62.7506 3.70944 64.3845 3.02941C66.0183 2.34937 67.7694 1.99958 69.5377 2C71.306 2.00042 73.057 2.35104 74.6905 3.03185C76.324 3.71265 77.8082 4.71031 79.0583 5.96786C80.3084 7.22541 81.2999 8.71822 81.9762 10.3611C82.6525 12.0039 83.0004 13.7646 83 15.5426C82.9996 17.3206 82.6509 19.0812 81.9738 20.7237C81.2967 22.3662 80.3045 23.8585 79.0538 25.1155L29.9181 74.5211C28.6434 75.7499 26.9396 76.4213 25.1739 76.3988C23.4082 76.3763 21.722 75.6572 20.4787 74.3964C19.2354 73.1356 18.5345 71.434 18.5271 69.6585C18.5197 67.883 19.2064 66.1757 20.4392 64.9044L55.4913 29.6598M29.9585 74.476L29.9136 74.5211" stroke="#8B1C00" stroke-width="2" stroke-linecap="round" stroke-linejoin="round"/>
</g>
</svg>
